/* XPM */
static char *sshstart[] = {
/* columns rows colors chars-per-pixel */
"32 32 189 2 ",
"   c gray9",
".  c #1D1D1D",
"X  c #2A2A2A",
"o  c #2C2C2C",
"O  c gray19",
"+  c #313131",
"@  c gray20",
"#  c #3C3C3C",
"$  c #434343",
"%  c gray27",
"&  c #484848",
"*  c gray29",
"=  c #4B4B4B",
"-  c gray30",
";  c #4E4E4E",
":  c #515151",
">  c gray32",
",  c #535353",
"<  c gray33",
"1  c #555555",
"2  c #565656",
"3  c gray34",
"4  c #585858",
"5  c gray35",
"6  c #5A5A5A",
"7  c #5B5B5B",
"8  c gray36",
"9  c gray37",
"0  c #5F5F5F",
"q  c gray38",
"w  c #626262",
"e  c gray39",
"r  c #646464",
"t  c #656565",
"y  c gray40",
"u  c #676767",
"i  c #686868",
"p  c DimGray",
"a  c gray42",
"s  c #6C6C6C",
"d  c #6D6D6D",
"f  c gray43",
"g  c #6F6F6F",
"h  c gray44",
"j  c #717171",
"k  c gray45",
"l  c #747474",
"z  c #777777",
"x  c gray47",
"c  c gray48",
"v  c #7B7B7B",
"b  c gray49",
"n  c #7E7E7E",
"m  c gray50",
"M  c #808080",
"N  c #818181",
"B  c gray51",
"V  c #838383",
"C  c #848483",
"Z  c #898989",
"A  c gray54",
"S  c gray56",
"D  c #909090",
"F  c #939393",
"G  c gray59",
"H  c #979797",
"J  c #979897",
"K  c #989898",
"L  c gray60",
"P  c #9A9A99",
"I  c #9A9A9A",
"U  c #9B9B9B",
"Y  c gray61",
"T  c #9D9D9D",
"R  c gray62",
"E  c #9F9F9F",
"W  c #A0A0A0",
"Q  c gray63",
"!  c gray64",
"~  c #A4A4A4",
"^  c #A5A5A5",
"/  c gray66",
"(  c #A9A9A9",
")  c gray67",
"_  c #ABACAB",
"`  c #ACACAC",
"'  c #AEAEAE",
"]  c #AFAFAF",
"[  c gray69",
"{  c #B2B2B2",
"}  c gray70",
"|  c #B4B4B4",
" . c gray71",
".. c #B5B6B5",
"X. c #B6B6B6",
"o. c #B7B7B7",
"O. c gray72",
"+. c #B9B9B9",
"@. c gray73",
"#. c #BBBBBB",
"$. c #BCBCBC",
"%. c gray74",
"&. c #BDBEBD",
"*. c gray",
"=. c #BEBFBE",
"-. c #C0C0C0",
";. c #C1C1C1",
":. c #C1C2C1",
">. c gray76",
",. c #C5C5C5",
"<. c #C5C6C5",
"1. c #C6C6C6",
"2. c gray78",
"3. c #C8C8C8",
"4. c gray79",
"5. c #CACACA",
"6. c #CACBCA",
"7. c #CBCBCB",
"8. c #CBCCCB",
"9. c gray80",
"0. c #CDCDCD",
"q. c #CECECE",
"w. c #CECFCE",
"e. c gray81",
"r. c #D0D0D0",
"t. c #D0D1D0",
"y. c gray82",
"u. c #D2D2D2",
"i. c #D2D3D2",
"p. c LightGray",
"a. c gray83",
"s. c #D5D5D5",
"d. c #D5D6D5",
"f. c gray84",
"g. c #D7D7D7",
"h. c #D7D8D7",
"j. c #D8D8D8",
"k. c gray85",
"l. c #DADADA",
"z. c #DADBDA",
"x. c gray86",
"c. c gainsboro",
"v. c #DCDDDC",
"b. c #DDDDDD",
"n. c #DDDEDD",
"m. c gray87",
"M. c #DFDFDF",
"N. c gray88",
"B. c #E0E1E0",
"V. c #E1E1E1",
"C. c #E1E2E1",
"Z. c #E2E2E2",
"A. c gray89",
"S. c #E3E4E3",
"D. c #E4E4E4",
"F. c #E4E5E4",
"G. c gray90",
"H. c #E6E6E6",
"J. c #E7E7E7",
"K. c gray91",
"L. c #E8E9E8",
"P. c #E9E9E9",
"I. c #EAEAEA",
"U. c gray92",
"Y. c #EBECEB",
"T. c #ECECEC",
"R. c gray93",
"E. c #EEEEEE",
"W. c #EEEFEE",
"Q. c #EFEFEF",
"!. c gray94",
"~. c #F1F1F1",
"^. c gray95",
"/. c #F2F3F2",
"(. c #F3F3F3",
"). c #F4F4F4",
"_. c gray96",
"`. c #F6F6F6",
"'. c #F6F7F6",
"]. c gray97",
"[. c #F8F8F8",
"{. c #F9F9F9",
"}. c gray98",
"|. c #FBFBFB",
" X c gray99",
".X c #FDFDFD",
"XX c #FEFEFE",
"oX c gray100",
"OX c None",
/* pixels */
"OXOXOXOXOXOXOXOXOXOXOXOXOXOXOXOXOXOXOXOXOXOXOXOXOXOXT._.c.P.OXOX",
"OXOXOXOXOXOXOXOXOXOXOXOXOXOXOXOXOXOXOXOXOXOXOXOXa.(.{.p.^. XV.OX",
"OXOXOXOXOXOXOXOXOXOXOXOXOXOXOXOXOXOXOXOXOXOXOXa.^.'.e.^.{.D.D.OX",
"OXOXOXOXOXOXOXOXOXOXOXOXOXOXOXOXOXOXOXOXOXOXe._.^.8.T.'.V.^.T.OX",
"OXOXOXOXOXOXOXOXOXOXOXOXOXOXOXOXOXOXOXOXOX.._.^.6.^.).V.T._.T.OX",
"OXOXOXOXOXOXOXOXOXOXOXOXOXOXOXOXOXOXOXOXOXa.T.<.Y.^.c.T._._.P.OX",
"OXOXOXOXOXOXOXOXOXOXOXOXOXOXOXOXOXOXOXOXV.P.<.T.T.c.P.^._.].D.OX",
"OXOXOXOXOXOXOXOXOXOXOXOXOXOXOXOXOXOX8.(.P.>.P.P.k.P.^.^._.T.C OX",
"OXOXOXOXOXOXOXOXOXOXOXOXOXOXOXOXk.<.!.D.&.K.K.g.P.^.^.^.T.C OXOX",
"OXOXOXOXOXOXOXOXOXOXOXOXOXOXOXOX&.^.B.&.D.K.a.K.T.Q.^.P.b OXOXOX",
"OXOXOXOXOXOXOXOXOXOXOXOXOXOXOXOXM.v.@.D.D.i.D.Q.^.^.T.b OXOXOXOX",
"OXOXOXOXOXOXOXOXOXOXOXOXOX..&.V.k.o.V.B.t.D.T.T.T.P.N OXOXOXOXOX",
"OXOXOXOXOXOXV.V.V.V.V.c.k.C D.h...B.c.t.A.U.T.T.P.N OXOXOXOXOXOX",
"OXOXOXOXc.D.a.k.k.V.c.V.k.k.J P c.c.9.V.P.U.U.J.N OXOXOXOXOXOXOX",
"OXOXOXk.k.p.c.V.D.D.D.D.D.D.V.k.` >.c.K.P.T.D.m OXOXOXOXOXOXOXOX",
"OXOXOXk.a.V.D.V.V.D.D.D.P.D.P.V.<.c.K.V.@.P N N b N OXOXOXOXOXOX",
"OXOXp.e.p.a.p.k.c.D.D.J.D.P.J.J.D.h.&.N k j v b v h l v OXOXOXOX",
"OXOXe.e.Y l P e.k.N.D.D.P.D.V.P.D.( k g ( M.D.P.D.j.Y s l OXOXOX",
"OX` e.^ p # & E a.V.V.D.c.k.e.V.@.g j h.!.).{.{._.^.P.6.d h OXOX",
"OX..7.H OXOXOXOXp.N.V.j.&.` c.c.l p k.).{.g._. X X X_.P.6.p g OX",
"OX@.6.} OXOXOXOXa.N.a.%.E &.D.` e ) ^.{. X..V <. X X X{.D.G t OX",
"OX..3.r.k.OXOXk.j.j.o.! >.D.T.N e A.{. X X( p 8 A ^. X X!.a.8 p ",
"OX[ <.r.p.c.c.a.a.,.E %.V.P.T.t j V.]. X X! 5 & - w >. X_.V.d w ",
"OXG 3.r.k.c.c.p.| ! %.c.P.P.P.8 z A.]. X XC o . + % 8 2._.V.j 0 ",
"OXOXa.6.k.c.k.&.G o.c.P.P.T.T.w h V._. X Xv .   X 5 a. X_.V.p 5 ",
"OXOX@.a.r.k.N.<.>.c.J.P.U.T.U.z 5 k.^. X XN + + A _. X X^.a.1 8 ",
"OXOXOXk.c.a.j.c.c.P.P.P.P.P.T.^ , E D.[. XF w 7. X X X{.D.F , OX",
"OXOXOX5 a.J.c.c.c.V.D.D.P.^.T.^ 1 5 p.T.[.<.^. X X X{.P.6.1 1 OX",
"OXOXOXOX% @.c.P.T.!.^.^.P.e.P & - , i r.D.^._.{.).^.D.7.w , OXOX",
"OXOXOXOXOXOXp Y @...} [ F t OXOXOX3 , 4 E k.V.V.N.g.P 1 , 1 OXOX",
"OXOXOXOXOXOXOXOXOXOXOXOXOXOXOXOXOXOXOX, - 1 i s t , - 1 OXOXOXOX",
"OXOXOXOXOXOXOXOXOXOXOXOXOXOXOXOXOXOXOXOXOX, , : , 1 OXOXOXOXOXOX"
};
