/* XPM */
static char *sshstart_16[] = {
/* columns rows colors chars-per-pixel */
"16 16 100 2 ",
"   c #232323",
".  c #353535",
"X  c #484848",
"o  c gray31",
"O  c gray33",
"+  c gray34",
"@  c #585858",
"#  c #5A5A5A",
"$  c #5D5D5D",
"%  c #606060",
"&  c #626262",
"*  c gray39",
"=  c #646464",
"-  c gray40",
";  c gray42",
":  c #6C6C6C",
">  c #767676",
",  c #797979",
"<  c #808080",
"1  c #838383",
"2  c #848484",
"3  c #868686",
"4  c gray54",
"5  c #8B8B8B",
"6  c gray55",
"7  c #8E8E8E",
"8  c #909090",
"9  c gray57",
"0  c #929292",
"q  c #939393",
"w  c #959595",
"e  c gray60",
"r  c #9B9B9B",
"t  c gray63",
"y  c #A2A2A2",
"u  c #A4A4A4",
"i  c gray66",
"p  c gray68",
"a  c #AEAEAE",
"s  c #B0B1B0",
"d  c #B7B7B7",
"f  c gray74",
"g  c gray",
"h  c gray75",
"j  c #C0C0C0",
"k  c #C0C1C0",
"l  c #C1C1C1",
"z  c gray76",
"x  c #C2C3C2",
"c  c gray77",
"v  c #C5C5C5",
"b  c gray78",
"n  c #C8C8C8",
"m  c #CBCBCB",
"M  c gray80",
"N  c #CDCDCD",
"B  c #CDCECD",
"V  c gray81",
"C  c gray82",
"Z  c #D2D2D2",
"A  c LightGray",
"S  c gray83",
"D  c #D5D5D5",
"F  c gray84",
"G  c #D7D7D7",
"H  c #D8D8D8",
"J  c gray85",
"K  c #DADADA",
"L  c #DADBDA",
"P  c gray86",
"I  c gainsboro",
"U  c #DDDDDD",
"Y  c gray87",
"T  c #DFDFDF",
"R  c gray88",
"E  c #E1E2E1",
"W  c #E2E2E2",
"Q  c gray89",
"!  c #E4E4E4",
"~  c gray90",
"^  c #E5E6E5",
"/  c #E6E6E6",
"(  c #E7E7E7",
")  c gray91",
"_  c #EAEAEA",
"`  c gray92",
"'  c gray93",
"]  c #EEEEEE",
"[  c #EFEFEF",
"{  c gray94",
"}  c gray95",
"|  c #F3F3F3",
" . c gray96",
".. c gray97",
"X. c #F9F9F9",
"o. c #FBFBFB",
"O. c gray99",
"+. c #FDFDFD",
"@. c gray100",
"#. c None",
/* pixels */
"#.#.#.#.#.#.#.#.#.#.#.#.F } R #.",
"#.#.#.#.#.#.#.#.#.#.#.A } / ) f ",
"#.#.#.#.#.#.#.#.#.#.#.] T ! } x ",
"#.#.#.#.#.#.#.#.#.B / L R } } 9 ",
"#.#.#.#.#.#.#.#.c R H I ] ] u #.",
"#.#.#.#.#.#.#.c H A H ] ] t #.#.",
"#.#.#.A T T j a A A ) ) t #.#.#.",
"#.f H R R / / T f ! B 9 #.#.#.#.",
"#.B p v R / ) R V 7 2 u 9 , #.#.",
"7 d o - H H F F 1 x [ o.o./ > #.",
"9 m #.#.S n B f 1 X.H 2 R O.m : ",
"< B H A v j ! u r O.m . X f ] - ",
"#.F F A v R ) p 5 X.x   7  ./ % ",
"#.2 H H R ) ] B % ) F v O.X.w # ",
"#.#.* v H H d # #.: F ] ) r # #.",
"#.#.#.#.#.#.#.#.#.#.O $ # O #.#."
};
